<svg width="800px" height="800px" viewBox="0 0 1024 1024" xmlns="http://www.w3.org/2000/svg">
  <circle cx="512" cy="512" r="512" style="fill:#ff6600"/>
  <path fill="#ffffff" d="M724 452h-128c-13.25 0-24-10.75-24-24V300c0-13.25-10.75-24-24-24h-80c-13.25 0-24 10.75-24 24v128c0 13.25-10.75 24-24 24h-72c-13.25 0-24-10.75-24-24V300c0-13.25-10.75-24-24-24h-80c-13.25 0-24 10.75-24 24v400c0 13.25 10.75 24 24 24h528c13.25 0 24-10.75 24-24V476c0-13.25-10.75-24-24-24zm-72 168c0 13.25-10.75 24-24 24h-48c-13.25 0-24-10.75-24-24v-48c0-13.25 10.75-24 24-24h48c13.25 0 24 10.75 24 24v48z"/>
</svg>
