<svg width="800px" height="800px" viewBox="0 0 1024 1024" xmlns="http://www.w3.org/2000/svg">
  <circle cx="512" cy="512" r="512" style="fill:#dc382d"/>
  <g fill="#ffffff">
    <ellipse cx="512" cy="330" rx="220" ry="70"/>
    <path d="M292 330v120c0 38.66 98.5 70 220 70s220-31.34 220-70V330c0 38.66-98.5 70-220 70s-220-31.34-220-70z"/>
    <path d="M292 510v120c0 38.66 98.5 70 220 70s220-31.34 220-70V510c0 38.66-98.5 70-220 70s-220-31.34-220-70z"/>
    <path d="M292 690v60c0 38.66 98.5 70 220 70s220-31.34 220-70v-60c0 38.66-98.5 70-220 70s-220-31.34-220-70z"/>
  </g>
</svg>
